<?xml version="1.0" encoding="utf-8"?>
<!-- Generator: Adobe Illustrator 24.0.2, SVG Export Plug-In . SVG Version: 6.00 Build 0)  -->
<svg version="1.1" id="Layer_1" xmlns="http://www.w3.org/2000/svg" xmlns:xlink="http://www.w3.org/1999/xlink" x="0px" y="0px"
	 viewBox="0 0 280 80" style="enable-background:new 0 0 280 80;" xml:space="preserve">
<style type="text/css">
	.st0{fill:#00A551;}
	.st1{fill:#EC1C24;}
	.st2{fill:#231F20;}
</style>
<g>
	<path class="st0" d="M32.3,32.6c1.6-2.2,1.1-4.6-1.8-6.7c0,1.7,0.2,3-0.1,4.2c-0.1,0.6-0.9,1.4-1.4,1.4c-0.1,0-0.1,0-0.2,0v2.8
		C30.1,34.4,31.5,33.8,32.3,32.6z"/>
	<path class="st0" d="M55.5,22.6c-0.1-0.8-0.7-1.8-1.4-2.2c-1.9-1.3-4-2.5-6.1-3.6c-5.4-2.7-11.1-4.1-17.4-4.3c0,2.9,0,5.6,0,8.4
		c0,0.5,0.6,1,1,1.3c1.8,1.3,3.6,2.6,5.5,3.8c1.3,0.8,1.8,1.8,1.8,3.2c0,7.3,0,14.7,0,22c0,2.6-0.8,3.3-3.3,3.3c-2.3,0-4.7,0-7,0
		v14.2c0.4,0,0.9-0.1,1.2-0.3c4.4-2,8.3-4.7,11.8-8C52.5,49.9,56.8,37.3,55.5,22.6z M51.7,44.1c-0.3,0.7-0.5,1.7-1.5,1
		c-3-2.2-6-4.3-8.9-6.6c-0.7-0.6-1-1.8-1.1-2.7c-0.2-2.1,0-4.2,0-6.4c0-1.6-0.5-2.9-1.9-3.8c-1.8-1.2-3.5-2.4-5.2-3.6
		c-1-0.6-1.5-1.4-1.4-2.6c0.1-1.5,0-3.1,0-4.6c0-1,0.3-1.4,1.3-1.3c7.5,0.7,14.4,3.2,20.5,7.5c0.6,0.4,1.1,1.3,1.2,2
		c0.3,1.7,0.3,3.5,0.4,5.3C54.8,33.7,53.8,39,51.7,44.1z"/>
</g>
<path class="st1" d="M21.7,54.3c-2.1,0-3-0.9-3-3.1c-0.1-7.4-0.1-14.8-0.1-22.1c0-0.7,0.1-1.7,0.6-2.1c2-1.6,4.1-3,6.1-4.5
	c0.2,0.1,0.5,0.3,0.7,0.4c-0.3,1.5-0.2,3.2-0.9,4.4c-1.2,2.4-0.9,5,1.2,6.4c0.7,0.5,1.5,0.7,2.3,0.7v-2.8c-0.5-0.1-1.2-0.6-1.5-1
	c-0.3-0.4-0.2-1.1-0.2-1.7c0-5,0-9.9,0-14.9c0-1.2-0.3-1.7-1.6-1.6c-8,0.6-15.2,3.2-21.8,7.6c-1.1,0.7-1.5,1.6-1.7,2.9
	c-0.7,5.3-0.3,10.5,1,15.6c3.5,13.8,11.8,23.7,24.6,29.8c0.3,0.2,0.8,0.2,1.3,0.2V54.3C26.4,54.3,24.1,54.3,21.7,54.3z"/>
<g>
	<path class="st1" d="M90.8,39.5h-6.5V23.6L80,39.5h-4.5l-4.4-15.9v15.9h-5.3V17.2H75L78.4,29l3.2-11.8h9.3V39.5z"/>
	<path class="st1" d="M111.9,17.2l-7.2,12.9v9.4h-6.9v-9.4l-7.7-12.9h7.7l4,7.3l3.9-7.3H111.9z"/>
	<path class="st1" d="M141,33.3c0,1-0.2,2-0.7,3s-1.1,1.7-1.8,2.2c-1.2,0.8-3.1,1.1-5.7,1.1h-11V17.2h11.7c2.1,0,3.8,0.5,5.1,1.6
		c1.3,1.1,1.9,2.5,1.9,4.3c0,2.5-1.3,4.1-3.9,4.9C139.6,28.6,141,30.4,141,33.3z M133.8,23.9c0-1.2-0.8-1.9-2.3-1.9h-3.1v3.8h3.2
		C133.1,25.8,133.8,25.1,133.8,23.9z M134.2,32.6c0-1.4-0.9-2-2.7-2h-3.2v4h3.4c0.7,0,1.3-0.2,1.8-0.5
		C134,33.6,134.2,33.2,134.2,32.6z"/>
	<path class="st1" d="M164.4,28.4c0,3.3-1,5.9-3.1,8c-2.1,2.1-4.7,3.1-8,3.1H144V17.2h8.9c3.6,0,6.5,1.1,8.5,3.2
		C163.4,22.5,164.4,25.2,164.4,28.4z M157,28.2c0-1.8-0.4-3.2-1.2-4.3c-0.8-1.1-1.8-1.7-3-1.7H151v12.1h1.8c1.2,0,2.2-0.6,3-1.7
		C156.6,31.6,157,30.1,157,28.2z"/>
	<path class="st1" d="M194.2,32.3c0,2.2-0.9,4.1-2.8,5.5c-1.9,1.4-4.4,2.1-7.4,2.1c-5.6,0-9.1-2.3-10.4-6.8l6.5-1.1
		c0.4,1,0.9,1.7,1.5,2.1c0.6,0.4,1.6,0.6,2.8,0.6c1.7,0,2.5-0.5,2.5-1.4c0-0.5-0.2-0.9-0.6-1.1c-0.4-0.3-1.1-0.5-2.2-0.7
		c-3.5-0.7-5.9-1.5-7.4-2.6s-2.1-2.6-2.1-4.6c0-2.2,0.9-4,2.6-5.3c1.7-1.3,4-2,7-2c4.7,0,7.8,1.8,9.3,5.5l-5.9,1.7
		c-0.6-1.5-1.8-2.2-3.5-2.2c-1.6,0-2.4,0.5-2.4,1.4c0,0.4,0.2,0.7,0.5,0.9c0.4,0.2,1,0.4,2,0.6c2.2,0.4,3.7,0.8,4.4,1
		c0.7,0.2,1.5,0.5,2.2,0.9C193.1,27.9,194.2,29.8,194.2,32.3z"/>
	<path class="st1" d="M211.4,22.6h-4.8v16.9H200V22.6h-4.8v-5.3h16.2V22.6z"/>
	<path class="st1" d="M233.2,28.4c0,3.4-1,6.1-3,8.3c-2,2.1-4.6,3.2-7.8,3.2c-3.3,0-6-1-8-3.1s-3-4.9-3-8.3c0-3.5,1-6.2,3-8.3
		c2-2.1,4.6-3.2,7.9-3.2c3.3,0,5.9,1,7.9,3C232.2,21.9,233.2,24.8,233.2,28.4z M225.6,27.8c0-3.9-1.1-5.8-3.3-5.8
		c-2.3,0-3.4,2.2-3.4,6.5c0,4.2,1.1,6.3,3.3,6.3c1.2,0,2.1-0.5,2.6-1.6S225.6,30.3,225.6,27.8z"/>
	<path class="st1" d="M256.7,39.5h-7.8l-3.4-8.5h-2.2v8.5h-7.1V17.2h12c2.6,0,4.6,0.6,6.1,1.8c1.5,1.2,2.2,2.8,2.2,4.9
		c0,1.4-0.3,2.6-0.9,3.5c-0.6,0.9-1.7,1.7-3.2,2.4L256.7,39.5z M249.2,24.1c0-1.4-0.9-2.1-2.7-2.1h-3.2v4.3h3
		C248.3,26.2,249.2,25.5,249.2,24.1z"/>
	<path class="st1" d="M277.3,39.5H260V17.2h17.3v5.1h-10.3v3.2h8.4v4.9h-8.4v3.6h10.3V39.5z"/>
</g>
<g>
	<g>
		<path class="st2" d="M96.2,58.4c-0.3-0.2-0.6-0.3-1-0.3c-0.4,0-0.8,0.1-1,0.3c-0.3,0.2-0.4,0.5-0.4,0.8c0,0.3,0.1,0.6,0.4,0.8
			c0.3,0.2,0.6,0.3,1,0.3c0.4,0,0.7-0.1,1-0.3c0.3-0.2,0.4-0.5,0.4-0.8C96.6,58.9,96.5,58.6,96.2,58.4z"/>
		<path class="st2" d="M89,49.4h-6h-0.4h-15V51h1.1c0,0.2-0.1,0.5-0.1,0.6c0,0.5,0.1,0.9,0.3,1.2c0.2,0.3,0.4,0.6,0.7,0.8
			c0.3,0.2,0.6,0.4,0.9,0.5c0.3,0.1,0.6,0.2,0.9,0.2l-3.2,2.4l1.5,2c0,0,0.3,0,0.8-0.1c0.5-0.1,1.2-0.1,1.9-0.1c0.5,0,1,0,1.6,0.1
			c0.6,0,1.1,0.1,1.7,0.3c0.5,0.1,1.1,0.3,1.6,0.5c0.5,0.2,0.9,0.5,1.3,0.9v0.4h3.3V51h0.8H83h1.7l-0.2,0.3
			c-0.8,1.3-1.1,2.6-1.1,3.9c0,0.9,0.1,1.6,0.4,2.4c0.3,0.7,0.6,1.4,1,2c0.4,0.6,0.9,1.1,1.4,1.6c0.5,0.5,1,0.8,1.5,1.2
			c0.5,0.3,1,0.6,1.5,0.8c0.5,0.2,0.9,0.4,1.2,0.5l0.1,0.1c0,0,0,0,0,0l0.6,0.2l1.3-2.6c-1.1-0.3-2-0.6-2.7-1
			c-0.7-0.4-1.3-0.9-1.7-1.4c-0.4-0.5-0.7-1.1-0.9-1.6c-0.2-0.6-0.3-1.1-0.3-1.7c0-1.6,0.7-3.1,2-4.5h0h0.3h10.3v0.8l-9.5,2v3.8
			c0.4,0,0.8,0.1,1.3,0.1c0.5,0.1,1.2,0.2,2,0.3c0.4-0.4,1-0.7,1.8-0.7c0.3,0,0.6,0,0.9,0.1c0.3,0.1,0.5,0.2,0.7,0.4
			c0.2,0.2,0.4,0.3,0.5,0.5c0.1,0.2,0.2,0.4,0.2,0.7c0.7,0.3,1.4,0.6,2.1,0.9v0.6h3.3V51h1v-1.6H89.2H89z M78.4,57.5
			c-0.5-0.3-1-0.5-1.6-0.6c-0.6-0.1-1.2-0.2-1.7-0.3c-0.5-0.1-1-0.1-1.4-0.1c-0.4,0-0.5,0-0.5,0l4.2-3.2l-2.1-1.6
			c-0.1,0.2-0.3,0.4-0.5,0.6c-0.2,0.2-0.6,0.3-1,0.3c-0.5,0-0.8-0.1-1-0.3c-0.2-0.2-0.3-0.5-0.3-0.9c0-0.1,0-0.2,0-0.3h6.1V57.5z
			 M99.6,57c-0.6-0.3-1.4-0.6-2.3-0.9c-0.9-0.3-1.9-0.4-3.1-0.5l5.4-1.2L99.6,57z"/>
		<path class="st2" d="M130.1,49.4h-6.1h-0.3h-14.8V51h10.6v0.8l-9.5,2v3.8l1.8,0.2c0.5,0.1,1.1,0.2,1.7,0.3c0.6,0.1,1.3,0.3,2,0.5
			c0.7,0.2,1.4,0.4,2.1,0.7c0.7,0.3,1.3,0.5,2,0.9v0.6h3.3V51h0.8h0.3h1.8l-0.2,0.3c-0.8,1.3-1.1,2.6-1.1,3.9c0,0.9,0.1,1.6,0.4,2.4
			c0.3,0.7,0.6,1.4,1,2c0.4,0.6,0.9,1.1,1.4,1.6c0.5,0.5,1,0.8,1.5,1.2c0.5,0.3,1,0.6,1.5,0.8c0.5,0.2,0.9,0.4,1.2,0.5l0.1,0.1
			c0,0,0,0,0,0l0.6,0.2l1.3-2.6c-1.1-0.3-2-0.6-2.7-1c-0.7-0.4-1.3-0.9-1.7-1.4c-0.4-0.5-0.7-1.1-0.9-1.6c-0.2-0.6-0.3-1.1-0.3-1.7
			c0-1.6,0.7-3.1,2-4.5h0.3h2.8c0.6,0.5,1,0.9,1.3,1.3c0.3,0.4,0.5,0.9,0.5,1.4c0,0.6-0.1,1.1-0.3,1.5c-0.2,0.4-0.5,0.8-0.9,1.2
			c-0.4,0.4-0.9,0.7-1.5,1c-0.6,0.3-1.2,0.6-1.9,0.9l-0.1,0.1l2.9,1.9l0.6-0.2c0.2-0.1,0.5-0.2,0.8-0.4c0.3-0.2,0.6-0.3,1-0.6
			c0.3-0.2,0.7-0.5,1-0.8c0.3-0.3,0.6-0.6,0.9-1l3,1.6v1.8h3.3V51h1.1v-1.6h-14.5H130.1z M119.5,56.9l-0.5-0.2
			c-0.6-0.3-1.3-0.5-2.1-0.7c-0.8-0.2-1.7-0.4-2.8-0.4l5.4-1.2V56.9z M140.4,51v4.9l-2-1.1c0-0.1,0-0.2,0-0.3v-0.3
			c0-0.2,0-0.4,0-0.6c0-0.2,0-0.4-0.1-0.6c-0.1-0.7-0.5-1.4-0.9-1.9l-0.1-0.1H140.4z"/>
	</g>
	<g>
		<path class="st2" d="M269.8,49.4h-4.4v1.6c-0.5-0.4-1.3-0.8-2.3-1.1c-1-0.3-2.1-0.5-3.5-0.5c-1.9,0-4.1,0.5-6.7,1.5v0h-0.1l2.1,2
			l0.5,0.2c0.3,0.1,0.6,0.4,1,0.7c0.4,0.3,0.7,0.8,1.1,1.3l-2.3,0.9l2,2l8.2-3.4v6h3.3V51h1.1V49.4z M260.4,54.2
			c-0.2-0.4-0.5-0.8-0.8-1.2c-0.3-0.4-0.7-0.7-1.1-1c0.5-0.1,1.1-0.1,1.6-0.1c0.6,0,1.3,0.1,2,0.2c0.7,0.1,1.3,0.4,1.9,0.7
			L260.4,54.2z"/>
		<path class="st2" d="M277,57.5c-0.2-0.2-0.4-0.3-0.7-0.6c-0.3-0.2-0.6-0.4-1-0.6c-0.4-0.2-0.9-0.4-1.4-0.5
			c-0.5-0.1-1.1-0.2-1.7-0.2c-0.4,0-0.8,0-1.2,0.1c-0.4,0.1-0.9,0.2-1.3,0.3l1.5,1.9c0.2,0,0.4-0.1,0.6-0.1c0.3,0,0.6,0,0.9,0.1
			c0.3,0.1,0.6,0.2,0.8,0.3c0.2,0.1,0.4,0.2,0.6,0.4c0.2,0.1,0.3,0.2,0.4,0.3l0.2,0.2l1.6,2l2.6-1.2l-1.7-2.1L277,57.5z"/>
		<path class="st2" d="M271.8,54.3c0.3,0.3,0.8,0.5,1.2,0.6c0.5,0.2,1,0.2,1.6,0.2c0.5,0,1-0.1,1.5-0.2c0.5-0.2,0.9-0.4,1.2-0.6
			c0.3-0.3,0.6-0.6,0.8-0.9c0.2-0.4,0.3-0.7,0.3-1.1c0-0.4-0.1-0.8-0.3-1.2c-0.2-0.4-0.5-0.7-0.8-0.9c-0.4-0.3-0.8-0.5-1.2-0.6
			c-0.5-0.2-1-0.2-1.5-0.2c-0.6,0-1.1,0.1-1.5,0.2c-0.5,0.2-0.9,0.4-1.2,0.6c-0.4,0.3-0.6,0.6-0.8,0.9c-0.2,0.4-0.3,0.7-0.3,1.2
			c0,0.4,0.1,0.8,0.3,1.1C271.2,53.7,271.4,54,271.8,54.3z M273.7,51.6c0.2-0.2,0.5-0.3,0.8-0.3c0.3,0,0.6,0.1,0.8,0.3
			c0.2,0.2,0.3,0.4,0.3,0.6c0,0.2-0.1,0.5-0.3,0.6c-0.2,0.2-0.5,0.3-0.8,0.3c-0.3,0-0.6-0.1-0.8-0.3c-0.2-0.2-0.3-0.4-0.3-0.6
			C273.4,52,273.5,51.8,273.7,51.6z"/>
		<path class="st2" d="M252.9,50.9v-1.5h-1.5l-0.6-0.8l0.3-0.3c0.1-0.1,0.3-0.3,0.6-0.5c0.2-0.2,0.5-0.3,0.8-0.5
			c0.3-0.2,0.7-0.3,1-0.4c0.4-0.1,0.8-0.2,1.2-0.2c0.5,0,1.1,0.1,1.7,0.2c0.6,0.1,1.2,0.2,1.7,0.4c0.6,0.1,1.1,0.3,1.6,0.4
			c0.5,0.2,1,0.3,1.3,0.5l1.2,0.5l2.9-1.7c-0.6-0.3-1.3-0.5-1.9-0.7c-0.3-0.1-0.7-0.2-1-0.3c-0.3-0.1-0.6-0.2-0.9-0.3
			c-0.6-0.2-1.2-0.3-1.7-0.5c-0.5-0.1-1-0.3-1.5-0.4l-1.3-0.3c-0.3-0.1-0.5-0.1-0.8-0.1c-0.1,0-0.3,0-0.4,0c-0.4,0-0.7,0-1.1,0
			c-0.7,0-1.4,0.1-2,0.2c-0.4,0.1-0.8,0.2-1.1,0.3c-0.2,0.1-0.4,0.1-0.5,0.2c-0.5,0.2-0.9,0.5-1.3,0.8c-0.4,0.3-0.7,0.5-0.9,0.8
			c0,0,0,0-0.1,0.1c-0.3,0.3-0.5,0.5-0.7,0.8c-0.2,0.2-0.3,0.5-0.4,0.6l-0.2,0.3l0.7,1h-0.2h-0.3h-4.2V50c-0.6-0.4-1.4-0.5-2.3-0.6
			c-0.9,0-1.6,0.1-2.3,0.3c-0.6,0.2-1.1,0.5-1.5,0.8l-0.3,0.3c-0.7-1-2.1-1.5-4.2-1.5l-2.6,0V51h2.6c0.4,0,0.8,0.1,1,0.2
			c0.3,0.1,0.5,0.2,0.6,0.4c0.1,0.2,0.2,0.3,0.3,0.5c0.1,0.2,0.1,0.4,0.1,0.6c0,0.1,0,0.2,0,0.3c0,0.1,0,0.2,0,0.3l-0.1,0.3
			c-0.3-0.3-0.7-0.4-1.2-0.4c-0.7,0-1.4,0.2-1.9,0.5c-0.5,0.3-0.8,0.8-0.8,1.5c0,0.3,0.1,0.5,0.2,0.8c0.1,0.3,0.3,0.5,0.6,0.7
			c0.3,0.2,0.6,0.4,1,0.5c0.4,0.1,0.9,0.2,1.5,0.2c0.6,0,1.1-0.1,1.6-0.3c0.4-0.2,0.8-0.5,1.2-0.9c0.3,0.4,0.7,0.7,1.2,0.9
			c0.5,0.2,1,0.3,1.6,0.3c0.6,0,1.1-0.1,1.5-0.2c0.4-0.1,0.7-0.3,1-0.5c0.3-0.2,0.4-0.4,0.6-0.7c0.1-0.3,0.2-0.5,0.2-0.8
			c0-0.7-0.3-1.2-0.8-1.5c-0.5-0.3-1.1-0.5-1.8-0.5c-0.2,0-0.5,0-0.7,0.1c-0.2,0.1-0.4,0.2-0.6,0.3c0,0-0.1-0.2-0.1-0.5
			c0-0.1,0-0.3,0.1-0.5c0-0.2,0.1-0.3,0.3-0.5c0.1-0.2,0.3-0.3,0.6-0.4c0.3-0.1,0.6-0.2,1-0.2c0.7,0,1.2,0.1,1.5,0.4
			c0.4,0.3,0.7,0.6,0.9,1.1v7.6h3.3V51h0.9h0.3h0.7v9.7h3.3V51L252.9,50.9L252.9,50.9C252.8,50.9,252.8,50.9,252.9,50.9z"/>
		<g>
			<path class="st2" d="M220.8,49.4V50c-0.6-0.4-1.4-0.5-2.3-0.6c-0.9,0-1.6,0.1-2.3,0.3c-0.6,0.2-1.1,0.5-1.5,0.8l-0.3,0.3
				c-0.7-1-2.1-1.5-4.2-1.5l-2.6,0h-5.9h-0.4h-14h-0.2H181h-0.3h-14.6h-0.2h-1.3l-0.6-0.8l0.3-0.3c0.1-0.1,0.3-0.3,0.6-0.5
				c0.2-0.2,0.5-0.3,0.8-0.5c0.3-0.2,0.7-0.3,1-0.4c0.4-0.1,0.8-0.2,1.2-0.2c0.5,0,1.1,0.1,1.7,0.2c0.6,0.1,1.2,0.2,1.7,0.4
				c0.6,0.1,1.1,0.3,1.6,0.4c0.5,0.2,1,0.3,1.3,0.5l1.2,0.5l2.9-1.7c-0.6-0.2-1.2-0.5-1.8-0.7c-0.5-0.1-0.9-0.3-1.4-0.4
				c-0.2-0.1-0.4-0.1-0.7-0.2c-0.6-0.2-1.2-0.3-1.7-0.5c-0.5-0.1-1-0.3-1.5-0.4l-1.3-0.3c-0.4-0.1-0.8-0.1-1.2-0.2c-0.4,0-0.7,0-1,0
				c-1.1,2.2-3.5,3.6-7.3,3.9l-0.1,0.1l0.7,1h-0.5V51h1v9.7h3.3V51h0.8h0.2h10.4v0.8l-9.5,2v3.8l1.8,0.2c0.5,0.1,1.1,0.2,1.7,0.3
				c0.6,0.1,1.3,0.3,2,0.5c0.7,0.2,1.4,0.4,2.1,0.7c0.7,0.3,1.3,0.5,2,0.9v0.6h3.3V51h0.8h0.3h1.8l-0.2,0.3
				c-0.8,1.3-1.1,2.6-1.1,3.9c0,0.9,0.1,1.6,0.4,2.4c0.3,0.7,0.6,1.4,1,2c0.4,0.6,0.9,1.1,1.4,1.6c0.5,0.5,1,0.8,1.5,1.2
				c0.5,0.3,1,0.6,1.5,0.8c0.5,0.2,0.9,0.4,1.2,0.5l0.1,0.1c0,0,0,0,0,0l0.6,0.2l1.3-2.6c-1.1-0.3-2-0.6-2.7-1
				c-0.7-0.4-1.3-0.9-1.7-1.4c-0.4-0.5-0.7-1.1-0.9-1.6c-0.2-0.6-0.3-1.1-0.3-1.7c0-1.6,0.7-3.1,2-4.5h0.1h0.2h1.3v5.5l3.3,0.8
				l4.9-2l0,0.2l-0.1,0.3c-0.1,0.1-0.1,0.3-0.1,0.4c0,0.2,0,0.4,0,0.6c0,0.3,0,0.6,0.1,0.9c0.1,0.3,0.3,0.7,0.5,1
				c0.2,0.4,0.6,0.7,1,1.1c0.4,0.4,1,0.7,1.7,1.1l1.8-2.2c-0.4-0.2-0.7-0.4-1-0.7c-0.2-0.2-0.4-0.5-0.5-0.7
				c-0.1-0.2-0.2-0.5-0.2-0.7c0-0.2,0-0.4,0-0.5c0,0,0-0.1,0-0.1l0.9-3.4l-3.3-0.5l-5.8,2.3V51h9.4h0.4h1.7l-0.2,0.3
				c-0.8,1.3-1.1,2.6-1.1,3.9c0,0.9,0.1,1.6,0.4,2.4c0.3,0.7,0.6,1.4,1,2c0.4,0.6,0.9,1.1,1.4,1.6c0.5,0.5,1,0.8,1.5,1.2
				c0.5,0.3,1,0.6,1.5,0.8c0.5,0.2,0.9,0.4,1.2,0.5l0.1,0.1c0,0,0,0,0,0l0.6,0.2l1.3-2.6c-1.1-0.3-2-0.6-2.7-1
				c-0.7-0.4-1.3-0.9-1.7-1.4c-0.4-0.5-0.7-1.1-0.9-1.6c-0.2-0.6-0.3-1.1-0.3-1.7c0-1.6,0.7-3.1,2-4.5h0.3h2.2c0.4,0,0.8,0.1,1,0.2
				c0.3,0.1,0.5,0.2,0.6,0.4c0.1,0.2,0.2,0.3,0.3,0.5c0.1,0.2,0.1,0.4,0.1,0.6c0,0.1,0,0.2,0,0.3c0,0.1,0,0.2,0,0.3l-0.1,0.3
				c-0.3-0.3-0.7-0.4-1.2-0.4c-0.7,0-1.4,0.2-1.9,0.5c-0.5,0.3-0.8,0.8-0.8,1.5c0,0.3,0.1,0.5,0.2,0.8c0.1,0.3,0.3,0.5,0.6,0.7
				c0.3,0.2,0.6,0.4,1,0.5c0.4,0.1,0.9,0.2,1.5,0.2c0.6,0,1.1-0.1,1.6-0.3c0.4-0.2,0.8-0.5,1.2-0.9c0.3,0.4,0.7,0.7,1.2,0.9
				c0.5,0.2,1,0.3,1.6,0.3c0.6,0,1.1-0.1,1.5-0.2c0.4-0.1,0.7-0.3,1-0.5c0.3-0.2,0.4-0.4,0.6-0.7c0.1-0.3,0.2-0.5,0.2-0.8
				c0-0.7-0.3-1.2-0.8-1.5c-0.5-0.3-1.1-0.5-1.8-0.5c-0.2,0-0.5,0-0.7,0.1c-0.2,0.1-0.4,0.2-0.6,0.3c0,0-0.1-0.2-0.1-0.5
				c0-0.1,0-0.3,0.1-0.5c0-0.2,0.1-0.3,0.3-0.5c0.1-0.2,0.3-0.3,0.6-0.4c0.3-0.1,0.6-0.2,1-0.2c0.7,0,1.2,0.1,1.5,0.4
				c0.4,0.3,0.7,0.6,0.9,1.1v7.6h3.3V51h1.2v-1.6H220.8z M176.5,56.9l-0.5-0.2c-0.6-0.3-1.3-0.5-2.1-0.7c-0.8-0.2-1.7-0.4-2.8-0.4
				l5.4-1.2V56.9z"/>
			<path class="st2" d="M167.9,44.3C167.9,44.3,167.9,44.3,167.9,44.3c-0.8,0-1.4,0.1-2.1,0.2c-0.6,0.1-1.2,0.3-1.6,0.6
				c-0.5,0.2-0.9,0.5-1.3,0.8c-0.2,0.2-0.4,0.3-0.6,0.5c-0.1,0.1-0.3,0.2-0.4,0.4c-0.3,0.3-0.5,0.5-0.7,0.8
				c-0.2,0.2-0.3,0.5-0.4,0.6l-0.1,0.2C164.4,47.9,166.8,46.6,167.9,44.3z"/>
		</g>
	</g>
	<rect x="149.2" y="54" class="st2" width="7.6" height="1.9"/>
</g>
</svg>
